# xmcd CD database file
#
# Track frame offsets:
#	150
#	12972
#	27045
#	38077
#	49620
#	64965
#	82722
#	105750
#	113100
#	116087
#	123290
#	133947
#	150722
#	164287
#
# Disc length: 2402 seconds
#
# Revision: 0
# Processed by: cddbd v1.4PL0 Copyright (c) Steve Scherf et al.
# Submitted via: CDex 1.51
#
DISCID=a509600e
DTITLE=Lee Mayall - Live at the blue
DYEAR=1900
DGENRE=Blues
TTITLE0=Lucille
TTITLE1=I Can't turn you loose
TTITLE2=Rocking Robin
TTITLE3=Hound Dog
TTITLE4=Tequila
TTITLE5=Two timing Woman
TTITLE6=Gigolo
TTITLE7=Rock this town
TTITLE8=Strip Show
TTITLE9=This little girl 's gone rocking
TTITLE10=Two night stand
TTITLE11=Pick up pices
TTITLE12=Don't mess with my man
TTITLE13=I feel good
EXTD=
EXTT0=
EXTT1=
EXTT2=
EXTT3=
EXTT4=
EXTT5=
EXTT6=
EXTT7=
EXTT8=
EXTT9=
EXTT10=
EXTT11=
EXTT12=
EXTT13=
PLAYORDER=
